<?xml version="1.0" encoding="utf-8"?>
<!-- Generator: Adobe Illustrator 19.0.0, SVG Export Plug-In . SVG Version: 6.00 Build 0)  -->
<svg version="1.1" id="Calque_1" xmlns="http://www.w3.org/2000/svg" xmlns:xlink="http://www.w3.org/1999/xlink" x="0px" y="0px"
     viewBox="0 0 226.8 155.9" style="enable-background:new 0 0 226.8 155.9;" xml:space="preserve">
<style type="text/css">
	.st0{fill:#FFFFFF;}
	.st1{fill:#4E5CA6;}
</style>
  <g id="XMLID_1_">
    <g id="XMLID_156_">
      <path id="XMLID_158_" class="st0" d="M60.4,95.4c-2.8,0-5.6,0-8.4,0c-0.7,0-1.1,0.3-1.3,0.9c-1.3,2.9-2.6,5.9-3.9,8.8
        c-0.4,0.8-1,1.2-1.9,1.2c-2.8,0-5.5-0.1-8.3,0c-1.5,0-2.5-1.4-1.8-2.9c4.9-10.4,9.7-20.9,14.5-31.3c4.9-10.5,9.7-21.1,14.6-31.6
        c0.3-0.8,0.9-1.2,1.8-1.2c0.9,0,1.4,0.4,1.8,1.2c1.2,2.7,2.5,5.4,3.8,8.1c0.3,0.6,0.3,1.3,0,1.9C66.2,61.3,61.4,72,56.6,82.8
        c-0.3,0.6,0,1.2,0.8,1.2c2.5,0,5,0,7.5,0c1,0,1.6,0.4,2.1,1.3c1.2,2.5,2.4,4.9,3.6,7.4c0.6,1.1,0,2.4-1.1,2.7
        c-0.2,0.1-0.5,0.1-0.7,0.1C66,95.4,63.2,95.4,60.4,95.4z"/>
      <path id="XMLID_157_" class="st1" d="M65.7,110.9c0-1.3,0-2.5,0-3.8c0-1.2,0.8-1.9,1.9-1.9c1.3,0,2.6,0,3.9-0.1
        c3.9-0.3,7.1-3.2,8-7c0.5-2,0.2-4-0.7-5.9C75.9,86,73,79.8,70.1,73.5c-0.3-0.6-0.3-1.2,0-1.8c1.4-3,2.7-6,4-9.1
        c0.4-0.8,1-1.2,1.8-1.2c0.8,0,1.3,0.5,1.6,1.2c3.9,8.4,7.9,16.9,11.8,25.3c1.5,3.2,2,6.5,1.7,10c-0.4,5-2.4,9.2-6,12.7
        c-3.3,3.3-7.4,5.3-12.1,5.8c-1.9,0.2-3.8,0.1-5.7,0.1c-0.9,0-1.6-0.9-1.6-1.8C65.6,113.5,65.7,112.2,65.7,110.9z"/>
    </g>
  </g>
</svg>
